<svg id="Layer_1" data-name="Layer 1" xmlns="http://www.w3.org/2000/svg" viewBox="0 0 378.08 36.16"><defs><style>.cls-1{fill:#fff;}</style></defs><title>logo</title><path class="cls-1" d="M26.38,22.7v7.59H38.29v8H26.38V48.67H16.19V14.37h22.1V22.7Z" transform="translate(-16.19 -13.44)"/><path class="cls-1" d="M42.84,14.37H53V36.66a4.34,4.34,0,0,0,1.17,3,3.89,3.89,0,0,0,3,1.27,3.82,3.82,0,0,0,3-1.27,4.41,4.41,0,0,0,1.15-3V14.37H71.51V36.76a13.26,13.26,0,0,1-1,5.14A11.46,11.46,0,0,1,67.71,46a12.77,12.77,0,0,1-4.51,2.67,19.23,19.23,0,0,1-12,0A13,13,0,0,1,46.67,46a11.41,11.41,0,0,1-2.85-4.07,13.26,13.26,0,0,1-1-5.14Z" transform="translate(-16.19 -13.44)"/><path class="cls-1" d="M76.65,14.37H93.12a13.13,13.13,0,0,1,5.31,1,12.47,12.47,0,0,1,4.07,2.76,12.12,12.12,0,0,1,2.6,4.07,13.52,13.52,0,0,1,.9,4.93,12.87,12.87,0,0,1-1.66,6.46,12,12,0,0,1-4.61,4.61l6.86,10.44h-12L88.76,39.9H86.85v8.77H76.65ZM91.06,32a4.23,4.23,0,0,0,3.31-1.42,5.36,5.36,0,0,0,0-6.86,4.1,4.1,0,0,0-3.28-1.43H86.85V32Z" transform="translate(-16.19 -13.44)"/><path class="cls-1" d="M110.42,14.37h16.8a14,14,0,0,1,5.71,1,9.61,9.61,0,0,1,3.41,2.4,7.62,7.62,0,0,1,1.64,3,12,12,0,0,1,.41,2.89,8.22,8.22,0,0,1-.51,3,7.76,7.76,0,0,1-1.32,2.25,7.31,7.31,0,0,1-1.77,1.55,7.14,7.14,0,0,1-1.83.83,8.57,8.57,0,0,1,1.71.71,7.23,7.23,0,0,1,1.86,1.45A8,8,0,0,1,138,35.8a8.39,8.39,0,0,1,.61,3.31,12.38,12.38,0,0,1-.42,3,7.8,7.8,0,0,1-1.61,3.11,9.43,9.43,0,0,1-3.39,2.45,13.7,13.7,0,0,1-5.7,1h-17.1ZM124,27.84a5.83,5.83,0,0,0,2-.29,3.57,3.57,0,0,0,1.27-.79,2.89,2.89,0,0,0,.71-1.12,3.83,3.83,0,0,0,.22-1.28,4.12,4.12,0,0,0-.17-1.12,3,3,0,0,0-.61-1.11,3.28,3.28,0,0,0-1.25-.85,5.5,5.5,0,0,0-2.13-.35h-3.38v6.91Zm-3.38,6.67v7h3.47a5.06,5.06,0,0,0,2-.32,3.84,3.84,0,0,0,1.28-.8,3,3,0,0,0,.71-1.13A3.82,3.82,0,0,0,128.3,38a4.52,4.52,0,0,0-.17-1.16,2.81,2.81,0,0,0-.64-1.12,3.47,3.47,0,0,0-1.27-.86,5.4,5.4,0,0,0-2.09-.34Z" transform="translate(-16.19 -13.44)"/><path class="cls-1" d="M154.81,48.67H143.34l5.93-12.11L137.76,14.37h12l5.54,12.2,5.19-12.2h11.37Z" transform="translate(-16.19 -13.44)"/><path class="cls-1" d="M194.55,37.1a5.06,5.06,0,0,0,1.17,3.6A4.09,4.09,0,0,0,198.86,42a3.66,3.66,0,0,0,2.47-.78,2.68,2.68,0,0,0,.91-2.16A2.54,2.54,0,0,0,201,36.78a24.7,24.7,0,0,0-3.94-1.88c-1.41-.56-2.82-1.13-4.24-1.72A17.89,17.89,0,0,1,189,31,10.6,10.6,0,0,1,186.17,28a8.43,8.43,0,0,1-1.08-4.43,8.87,8.87,0,0,1,1.15-4.66,9.63,9.63,0,0,1,3.06-3.13A13.33,13.33,0,0,1,193.66,14a24.11,24.11,0,0,1,5.05-.53,17.42,17.42,0,0,1,6.27,1A11.46,11.46,0,0,1,209.1,17a9.38,9.38,0,0,1,2.25,3.6,12.31,12.31,0,0,1,.69,4H201.85a5.13,5.13,0,0,0-.84-3.16,3,3,0,0,0-2.54-1.11,3.86,3.86,0,0,0-2.21.64,2.28,2.28,0,0,0-.93,2,2.62,2.62,0,0,0,1.15,2.25A15.23,15.23,0,0,0,200,27l4.17,1.57a19,19,0,0,1,4,2.08,10.59,10.59,0,0,1,3,3.14,8.81,8.81,0,0,1,1.2,4.82,10.44,10.44,0,0,1-1,4.58,9.94,9.94,0,0,1-2.77,3.48,12.36,12.36,0,0,1-4.36,2.21,20.71,20.71,0,0,1-5.81.76,19.33,19.33,0,0,1-5.9-.84,12.57,12.57,0,0,1-4.46-2.4,10.52,10.52,0,0,1-2.84-3.89,13.43,13.43,0,0,1-1-5.37Z" transform="translate(-16.19 -13.44)"/><path class="cls-1" d="M221.06,23.09H214V14.37h24.3v8.72h-7.05V48.67H221.06Z" transform="translate(-16.19 -13.44)"/><path class="cls-1" d="M241.44,14.37h10.19V36.66a4.3,4.3,0,0,0,1.18,3,3.88,3.88,0,0,0,3,1.27,3.82,3.82,0,0,0,3-1.27,4.36,4.36,0,0,0,1.15-3V14.37h10.2V36.76a13.26,13.26,0,0,1-1,5.14A11.72,11.72,0,0,1,266.31,46a12.86,12.86,0,0,1-4.51,2.67,19.26,19.26,0,0,1-12,0A13,13,0,0,1,245.26,46a11.38,11.38,0,0,1-2.84-4.07,13.26,13.26,0,0,1-1-5.14Z" transform="translate(-16.19 -13.44)"/><path class="cls-1" d="M289.26,14.37a19.15,19.15,0,0,1,7.6,1.42,16.94,16.94,0,0,1,5.63,3.8A16.07,16.07,0,0,1,306,25.07,17.91,17.91,0,0,1,306,38a16.44,16.44,0,0,1-3.48,5.49,16.9,16.9,0,0,1-5.61,3.8,19.47,19.47,0,0,1-7.65,1.42h-14V14.37ZM285.44,23V40h3.09a8.07,8.07,0,0,0,3.45-.71,7.8,7.8,0,0,0,2.6-1.88,8.58,8.58,0,0,0,1.62-2.72,9.48,9.48,0,0,0,0-6.42,8.37,8.37,0,0,0-1.62-2.72A7.69,7.69,0,0,0,292,23.7a8.22,8.22,0,0,0-3.45-.71Z" transform="translate(-16.19 -13.44)"/><path class="cls-1" d="M311.46,14.37h10.29v34.3H311.46Z" transform="translate(-16.19 -13.44)"/><path class="cls-1" d="M344.58,49.6a19.54,19.54,0,0,1-7.86-1.5,17.36,17.36,0,0,1-5.83-4,17,17,0,0,1-3.63-5.78,19.18,19.18,0,0,1,0-13.62,17.09,17.09,0,0,1,3.63-5.79,17.66,17.66,0,0,1,5.83-4,19.54,19.54,0,0,1,7.86-1.49,19.75,19.75,0,0,1,7.89,1.49,17.69,17.69,0,0,1,5.86,4A17.22,17.22,0,0,1,362,24.71a19.18,19.18,0,0,1,0,13.62,17.18,17.18,0,0,1-3.62,5.78,17.39,17.39,0,0,1-5.86,4A19.75,19.75,0,0,1,344.58,49.6Zm0-9.31a8.07,8.07,0,0,0,3.51-.74,7.88,7.88,0,0,0,2.59-1.93,8.37,8.37,0,0,0,1.62-2.8,10,10,0,0,0,0-6.61,8.42,8.42,0,0,0-1.62-2.79,7.91,7.91,0,0,0-2.59-1.94,8.78,8.78,0,0,0-7,0,8,8,0,0,0-2.6,1.94,8.4,8.4,0,0,0-1.61,2.79,9.87,9.87,0,0,0,0,6.61,8.34,8.34,0,0,0,1.61,2.8,7.92,7.92,0,0,0,2.6,1.93A8.06,8.06,0,0,0,344.58,40.29Z" transform="translate(-16.19 -13.44)"/><path class="cls-1" d="M376.33,37.1a5.07,5.07,0,0,0,1.18,3.6A4.08,4.08,0,0,0,380.65,42a3.66,3.66,0,0,0,2.47-.78A2.68,2.68,0,0,0,384,39a2.54,2.54,0,0,0-1.25-2.23,24.46,24.46,0,0,0-3.95-1.88l-4.24-1.72A17.81,17.81,0,0,1,370.75,31,10.33,10.33,0,0,1,368,28a8.43,8.43,0,0,1-1.08-4.43A8.87,8.87,0,0,1,368,18.87a9.63,9.63,0,0,1,3.06-3.13A13.33,13.33,0,0,1,375.45,14a24.11,24.11,0,0,1,5.05-.53,17.42,17.42,0,0,1,6.27,1A11.46,11.46,0,0,1,390.89,17a9.5,9.5,0,0,1,2.25,3.6,12.31,12.31,0,0,1,.69,4H383.64a5.13,5.13,0,0,0-.84-3.16,3,3,0,0,0-2.55-1.11,3.83,3.83,0,0,0-2.2.64,2.28,2.28,0,0,0-.93,2,2.62,2.62,0,0,0,1.15,2.25A15.23,15.23,0,0,0,381.82,27L386,28.53a19.25,19.25,0,0,1,4,2.08,10.71,10.71,0,0,1,3,3.14,8.81,8.81,0,0,1,1.2,4.82,10.44,10.44,0,0,1-1,4.58,10.06,10.06,0,0,1-2.77,3.48,12.44,12.44,0,0,1-4.36,2.21,20.76,20.76,0,0,1-5.81.76,19.28,19.28,0,0,1-5.9-.84,12.48,12.48,0,0,1-4.46-2.4,10.41,10.41,0,0,1-2.84-3.89,13.43,13.43,0,0,1-1-5.37Z" transform="translate(-16.19 -13.44)"/></svg>