<?xml version="1.0" standalone="no"?>
<!DOCTYPE svg PUBLIC "-//W3C//DTD SVG 20010904//EN"
 "http://www.w3.org/TR/2001/REC-SVG-20010904/DTD/svg10.dtd">
<svg version="1.0" xmlns="http://www.w3.org/2000/svg"
 width="1427.000000pt" height="1427.000000pt" viewBox="0 0 1427.000000 1427.000000"
 preserveAspectRatio="xMidYMid meet">
<metadata>
Created by potrace 1.11, written by Peter Selinger 2001-2013
</metadata>
<g transform="translate(0.000000,1427.000000) scale(0.100000,-0.100000)"
fill="#000000" stroke="none">
<path d="M8490 14259 c-207 -26 -404 -114 -548 -242 -180 -163 -257 -303 -269
-489 -16 -254 123 -481 372 -606 67 -33 197 -76 265 -87 25 -4 54 -9 65 -11
28 -6 263 -6 272 -1 5 3 28 8 53 11 76 10 99 16 178 42 156 52 325 155 418
255 391 422 205 962 -386 1120 -50 14 -335 19 -420 8z"/>
<path d="M6568 13815 c-2 -1 -39 -6 -83 -10 -86 -7 -247 -33 -325 -51 -14 -3
-36 -8 -50 -10 -82 -15 -307 -85 -430 -134 -280 -112 -565 -283 -806 -485 -88
-73 -331 -319 -400 -405 -238 -294 -371 -585 -401 -880 -9 -85 -9 -208 0 -295
4 -38 8 -81 10 -95 2 -23 -7 -28 -113 -69 -63 -24 -203 -74 -310 -111 -176
-61 -321 -115 -375 -140 -152 -68 -366 -180 -396 -206 -8 -8 -19 -14 -22 -14
-9 0 -201 -125 -219 -143 -7 -7 -40 -32 -73 -57 -129 -97 -211 -172 -344 -316
-56 -61 -67 -73 -132 -154 -118 -147 -249 -375 -349 -605 -34 -79 -105 -296
-110 -337 -1 -4 -6 -22 -11 -40 -46 -151 -66 -409 -45 -583 13 -109 17 -129
42 -228 90 -357 294 -656 580 -853 l75 -52 -137 -133 c-331 -323 -516 -513
-613 -629 -57 -69 -112 -136 -123 -148 -142 -170 -408 -570 -478 -717 -13 -27
-29 -57 -36 -65 -16 -21 -115 -257 -152 -362 -34 -96 -89 -309 -97 -378 -3
-25 -8 -56 -11 -70 -7 -34 -6 -255 1 -316 18 -146 80 -315 157 -429 205 -304
514 -430 1053 -429 147 0 278 8 336 19 13 3 42 8 64 11 22 2 69 12 105 20 36
9 74 17 85 20 48 10 64 14 140 38 133 41 245 82 345 126 154 68 337 138 419
161 106 31 239 34 307 8 72 -27 138 -99 160 -175 17 -59 22 -185 10 -254 -3
-19 -8 -48 -11 -65 -16 -90 -83 -260 -223 -565 -16 -36 -78 -171 -137 -300
-59 -129 -116 -253 -125 -275 -10 -22 -29 -65 -42 -95 -69 -152 -117 -309
-143 -465 -21 -123 -13 -350 14 -455 13 -46 26 -89 29 -95 4 -5 7 -12 7 -15 1
-12 57 -115 85 -155 42 -62 154 -161 226 -199 55 -30 151 -66 215 -80 127 -28
370 -26 502 4 23 5 53 11 67 13 157 29 462 128 705 230 223 94 248 106 715
338 474 236 575 285 700 339 41 18 89 38 105 46 112 50 395 146 495 169 8 2
45 10 83 19 92 22 121 27 232 41 28 3 66 8 85 11 19 3 82 5 140 5 291 1 513
-70 712 -230 67 -53 101 -87 180 -179 54 -63 146 -208 162 -258 21 -65 99
-196 184 -311 75 -101 251 -281 332 -340 284 -206 563 -274 906 -219 279 44
669 267 987 565 215 200 391 426 557 711 40 69 80 136 89 150 25 36 125 234
156 310 15 36 45 117 67 180 77 223 100 242 333 275 36 5 107 18 160 30 297
62 572 212 777 421 43 43 85 90 95 104 9 14 20 27 23 30 16 12 115 168 155
243 82 155 157 368 191 545 45 233 38 589 -15 770 -5 18 -10 35 -10 37 1 34
-54 217 -106 351 -49 128 -152 344 -220 464 l-47 82 27 37 c146 198 251 421
314 665 30 115 35 137 50 246 22 154 30 398 17 515 -3 28 -8 73 -11 101 -3 28
-7 59 -9 70 -2 10 -7 39 -11 64 -42 272 -195 657 -357 901 -101 152 -155 218
-305 374 -90 94 -363 311 -543 432 -109 73 -272 157 -389 202 l-101 38 62 89
c48 70 188 246 218 274 3 3 23 26 45 51 212 241 383 423 710 754 219 221 241
244 287 311 185 268 188 541 7 762 -54 67 -179 172 -251 211 -24 13 -61 34
-83 46 -53 29 -183 82 -259 106 -115 37 -343 89 -449 103 -18 2 -54 7 -82 11
-27 3 -61 8 -75 11 -158 26 -832 26 -969 -1 -9 -2 -46 -6 -82 -9 -36 -4 -76
-8 -90 -11 -13 -2 -46 -6 -74 -10 -27 -3 -59 -8 -70 -10 -11 -3 -38 -7 -60
-10 -52 -7 -153 -24 -185 -30 -14 -3 -47 -9 -75 -15 -27 -5 -63 -12 -80 -15
-42 -7 -102 -18 -300 -59 -66 -14 -133 -27 -150 -30 -16 -3 -39 -8 -50 -10
-90 -20 -254 -50 -505 -91 -14 -3 -50 -7 -80 -11 -30 -3 -63 -8 -72 -9 -9 -2
-48 -7 -85 -10 -37 -4 -79 -8 -93 -11 -54 -8 -285 -16 -495 -17 -298 0 -475
13 -685 49 -14 2 -41 7 -60 10 -68 10 -276 67 -355 96 -199 74 -302 140 -388
249 -160 201 -153 537 18 901 93 200 108 317 48 388 -24 29 -74 57 -118 66
-11 2 -31 7 -45 10 -26 6 -346 15 -352 9z"/>
<path d="M2368 12105 c-2 -2 -20 -6 -41 -9 -210 -33 -442 -232 -512 -440 -22
-64 -22 -177 0 -240 40 -116 129 -205 255 -254 146 -57 351 -42 511 38 277
139 438 427 355 633 -47 114 -137 207 -244 251 -38 16 -74 20 -184 22 -75 1
-138 0 -140 -1z"/>
<path d="M7218 1174 c-2 -1 -21 -5 -43 -8 -22 -2 -70 -14 -107 -26 -330 -102
-604 -366 -676 -650 -3 -14 -6 -68 -7 -120 0 -84 3 -102 27 -151 66 -133 198
-207 385 -214 364 -14 780 252 916 585 36 88 45 133 42 221 -6 186 -120 314
-318 355 -59 13 -210 18 -219 8z"/>
</g>
</svg>
